<svg width="100" height="100" viewBox="0 0 100 100" fill="none" xmlns="http://www.w3.org/2000/svg">
<rect width="100" height="100" rx="26" fill="#0088FF"/>
<path d="M17.9883 38.3242C17.9883 37.543 18.2812 36.7617 18.7695 36.2539L23.7109 30.5703L18.75 24.9844C18.2422 24.457 17.9102 23.6562 17.9102 22.875C17.9102 21.2148 19.1797 20.0039 20.7227 20.0039C22.1484 20.0039 22.9688 20.5898 24.0625 22.25L27.168 26.9766H27.4609L30.5859 22.2695C31.6602 20.5898 32.4805 20.0039 33.9062 20.0039C35.4492 20.0039 36.7188 21.2148 36.7188 22.8945C36.7188 23.6758 36.4258 24.418 35.8984 24.9453L30.957 30.5703L35.6836 36C36.4062 36.7422 36.7383 37.4258 36.7383 38.3047C36.7383 39.9648 35.4688 41.1953 33.9648 41.1953C32.5 41.1953 31.6406 40.5898 30.5664 38.9492L27.4609 34.2227H27.168L24.1016 38.9297C23.0273 40.5898 22.207 41.1953 20.7422 41.1953C19.2578 41.1953 17.9883 39.9844 17.9883 38.3242ZM51.543 38.4414C50.5664 40.1992 48.5352 41.2344 46.0547 41.2344C41.9727 41.2344 39.2188 38.6953 39.2188 34.9258C39.2188 31.0391 42.1289 28.6562 46.9531 28.6367H51.5625V27.1328C51.5625 25.375 50.4102 24.4375 48.418 24.4375C46.9727 24.4375 45.918 25.0234 44.8047 25.8242C44.1602 26.2344 43.5156 26.4688 42.5391 26.4688C41.1914 26.4688 40.3711 25.5703 40.3711 24.3594C40.3711 23.0898 41.2305 21.8203 43.1641 20.9023C44.5508 20.2383 46.4062 19.8281 48.8281 19.8281C54.5703 19.8281 57.832 22.5039 57.832 27.2109V37.875C57.832 40.0234 56.7383 41.1953 54.7852 41.1953C53.1836 41.1953 52.0898 40.3555 51.8359 38.8516V38.4414H51.543ZM45.3906 34.4766C45.3906 35.9414 46.582 36.957 48.2812 36.957C50.1172 36.957 51.5625 35.7266 51.5625 34.1445V32.1133H48.3594C46.5234 32.1133 45.3906 33.0117 45.3906 34.4766ZM81.4453 37.7773C81.4453 40.0039 80.3125 41.1953 78.3008 41.1953C76.2695 41.1953 75.1562 39.9648 75.1562 37.7578V28.8516C75.1562 26.4492 73.9648 25.0234 71.9141 25.0234C69.707 25.0234 68.2812 26.7031 68.2812 29.457V37.7578C68.2812 39.9648 67.168 41.1953 65.1562 41.1953C63.1445 41.1953 62.0117 39.9648 62.0117 37.7578V23.2852C62.0117 21.2148 63.1836 19.9648 65.0781 19.9648C66.9336 19.9648 68.0078 21.0195 68.1055 22.9922V23.7539H68.418C69.1797 21.3711 71.582 19.8281 74.5508 19.8281C78.9453 19.8281 81.4453 22.5039 81.4453 27.2109V37.7773ZM34.1016 77.6602C33.3984 79.8281 31.0352 81.2344 28.125 81.2344C23.3789 81.2344 20.4688 77.6797 20.4688 71.8203V69.2227C20.4688 63.3633 23.3984 59.8281 28.1445 59.8281C31.0352 59.8281 33.2617 61.1367 34.043 63.2656H34.3555V56.2148C34.3555 53.9883 35.4688 52.7578 37.4805 52.7578C39.5117 52.7578 40.625 53.9883 40.625 56.2148V77.7578C40.625 79.9844 39.5312 81.1953 37.5195 81.1953C35.7031 81.1953 34.5703 80.1211 34.4141 78.2461V77.6602H34.1016ZM26.9531 71.4297C26.9531 74.5547 28.3203 76.3906 30.625 76.3906C32.9297 76.3906 34.3555 74.5547 34.3555 71.5469V69.3789C34.3555 66.5469 32.8516 64.6914 30.5859 64.6914C28.3008 64.6914 26.9531 66.5469 26.9531 69.6523V71.4297ZM44.4336 71.7422V69.4375C44.4336 63.5391 48.3398 59.6328 54.2188 59.6328C59.7461 59.6328 63.6523 63.5 63.6523 68.6758C63.6523 71.0586 62.8125 71.918 60.5664 71.918H50.8203V72.6797C50.8594 75.1406 52.5 76.8008 55.293 76.8008C56.7969 76.8008 57.8125 76.4688 58.6133 75.8828C59.5703 75.2773 59.9805 74.9062 60.957 74.9062C62.2266 74.9062 63.0664 75.7266 63.0664 77.0547C63.0664 78.168 62.3828 79.1445 61.1914 79.8867C59.7656 80.9023 57.4805 81.5078 54.8438 81.5078C48.3984 81.5078 44.4336 77.8359 44.4336 71.7422ZM50.8203 68.3242H57.7344V68.2656C57.7344 65.8828 56.4062 64.3203 54.3555 64.3203C52.1484 64.3203 50.8203 65.9219 50.8203 68.2656V68.3242ZM73.5938 77.7578C73.5938 79.9453 72.4219 81.1953 70.3906 81.1953C68.3398 81.1953 67.3242 79.9453 67.3242 77.7578V63.4023C67.3242 61.1953 68.3984 59.9648 70.4102 59.9648C72.2266 59.9648 73.2617 60.9805 73.3984 62.875V63.168H73.6914C74.3945 61.0195 75.8789 59.8281 77.8906 59.8281C78.75 59.8281 79.4336 60.0625 79.9219 60.5312C80.4297 61 80.7031 61.6836 80.7031 62.5625C80.7031 63.4219 80.4492 64.0469 79.9414 64.4766C79.4727 64.8672 78.75 65.082 77.8125 65.1211C74.9805 65.2188 73.5938 66.7617 73.5938 69.75V77.7578Z" fill="white"/>
</svg>
